<svg width="1728" height="375" viewBox="0 0 1728 375" fill="none" xmlns="http://www.w3.org/2000/svg">
<g opacity="0.7" filter="url(#filter0_i_41_1056)">
<path d="M185.508 374.5C85.0672 374.5 0 299.7 0 187.5C0 75.3 85.0672 0.5 187.045 0.5C233.679 0.5 293.123 16.3822 331.557 75.8123L289.536 105.527C262.888 68.6397 224.454 55.8315 188.07 55.8315C116.327 55.8315 59.4446 106.552 59.4446 187.5C59.4446 267.936 116.327 320.705 188.07 320.705C239.828 320.705 286.461 293.552 296.71 227.462H201.907V178.79H353.08C365.892 301.749 283.899 374.5 185.508 374.5Z" fill="#D9D9D9" fill-opacity="0.04"/>
<path d="M404.978 369.377V102.966H461.348V171.618C470.572 131.656 497.22 97.8425 545.903 97.8425C552.052 97.8425 557.177 98.3548 562.814 99.8918V153.686C557.177 152.662 552.565 152.149 546.415 152.149C495.682 152.149 461.348 189.037 461.348 244.881V369.377H404.978Z" fill="#D9D9D9" fill-opacity="0.04"/>
<path d="M724.725 374.5C655.544 374.5 585.338 325.829 585.338 236.171C585.338 146.514 655.544 97.8425 724.725 97.8425C793.906 97.8425 864.112 146.514 864.112 236.171C864.112 325.829 793.906 374.5 724.725 374.5ZM641.195 236.171C641.195 290.99 681.166 322.755 724.725 322.755C768.283 322.755 807.742 290.99 807.742 236.171C807.742 181.352 768.283 149.588 724.725 149.588C681.166 149.588 641.195 181.352 641.195 236.171Z" fill="#D9D9D9" fill-opacity="0.04"/>
<path d="M1034 374.5C964.817 374.5 894.611 325.829 894.611 236.171C894.611 146.514 964.817 97.8425 1034 97.8425C1103.18 97.8425 1173.39 146.514 1173.39 236.171C1173.39 325.829 1103.18 374.5 1034 374.5ZM950.469 236.171C950.469 290.99 990.44 322.755 1034 322.755C1077.56 322.755 1117.02 290.99 1117.02 236.171C1117.02 181.352 1077.56 149.588 1034 149.588C990.44 149.588 950.469 181.352 950.469 236.171Z" fill="#D9D9D9" fill-opacity="0.04"/>
<path d="M1295.47 369.377L1183.25 102.966H1241.15L1322.12 301.237L1402.58 102.966H1461L1348.26 369.377H1295.47Z" fill="#D9D9D9" fill-opacity="0.04"/>
<path d="M1481.51 369.377L1636.27 152.662H1496.37V102.966H1728L1573.24 319.168H1719.29V369.377H1481.51Z" fill="#D9D9D9" fill-opacity="0.04"/>
</g>
<defs>
<filter id="filter0_i_41_1056" x="0" y="0.5" width="1732" height="378" filterUnits="userSpaceOnUse" color-interpolation-filters="sRGB">
<feFlood flood-opacity="0" result="BackgroundImageFix"/>
<feBlend mode="normal" in="SourceGraphic" in2="BackgroundImageFix" result="shape"/>
<feColorMatrix in="SourceAlpha" type="matrix" values="0 0 0 0 0 0 0 0 0 0 0 0 0 0 0 0 0 0 127 0" result="hardAlpha"/>
<feOffset dx="4" dy="4"/>
<feGaussianBlur stdDeviation="12"/>
<feComposite in2="hardAlpha" operator="arithmetic" k2="-1" k3="1"/>
<feColorMatrix type="matrix" values="0 0 0 0 0.615553 0 0 0 0 0.398717 0 0 0 0 0.848333 0 0 0 0.24 0"/>
<feBlend mode="normal" in2="shape" result="effect1_innerShadow_41_1056"/>
</filter>
</defs>
</svg>
