<svg width="21" height="21" viewBox="0 0 21 21" fill="none" xmlns="http://www.w3.org/2000/svg">
<path fill-rule="evenodd" clip-rule="evenodd" d="M9.77961 0.50305C9.99209 0.502717 10.2207 0.50282 10.4673 0.502931L10.8739 0.50305C14.1309 0.50305 14.5169 0.514742 15.8031 0.5732C16.9924 0.627591 17.6379 0.826348 18.0679 0.993335C18.6372 1.21446 19.043 1.47879 19.4697 1.90579C19.8966 2.33278 20.1609 2.73945 20.3825 3.30878C20.5495 3.73832 20.7485 4.3839 20.8026 5.57339C20.8611 6.85947 20.8738 7.2458 20.8738 10.5017C20.8738 13.7575 20.8611 14.1438 20.8026 15.4299C20.7482 16.6194 20.5495 17.265 20.3825 17.6945C20.1614 18.2639 19.8966 18.6692 19.4697 19.096C19.0428 19.523 18.6374 19.7873 18.0679 20.0084C17.6384 20.1762 16.9924 20.3744 15.8031 20.4288C14.5172 20.4873 14.1309 20.5 10.8739 20.5C7.61669 20.5 7.23066 20.4873 5.94475 20.4288C4.7554 20.3739 4.10991 20.1752 3.67966 20.0082C3.1104 19.7871 2.70379 19.5227 2.27685 19.0957C1.8499 18.6687 1.58561 18.2631 1.364 17.6935C1.19704 17.264 0.99805 16.6184 0.94392 15.4289C0.885469 14.1428 0.873779 13.7565 0.873779 10.4986C0.873779 7.24071 0.885469 6.85642 0.94392 5.57034C0.998304 4.38085 1.19704 3.73527 1.364 3.30522C1.5851 2.73589 1.8499 2.32923 2.27685 1.90223C2.70379 1.47523 3.1104 1.2109 3.67966 0.989268C4.10965 0.821519 4.7554 0.62327 5.94475 0.568625C7.07005 0.517792 7.50614 0.502542 9.77961 0.5V0.50305ZM17.3853 2.52877C16.5771 2.52877 15.9215 3.18375 15.9215 3.99223C15.9215 4.80047 16.5771 5.4562 17.3853 5.4562C18.1934 5.4562 18.8491 4.80047 18.8491 3.99223C18.8491 3.184 18.1934 2.52826 17.3853 2.52826V2.52877ZM4.60947 10.5041C4.60947 7.04424 7.4142 4.23908 10.8736 4.23895C14.3331 4.23895 17.1372 7.04415 17.1372 10.5041C17.1372 13.964 14.3334 16.768 10.8739 16.768C7.41434 16.768 4.60947 13.964 4.60947 10.5041Z" fill="white"/>
<path fill-rule="evenodd" clip-rule="evenodd" d="M10.874 6.4375C13.1195 6.4375 14.94 8.25808 14.94 10.5041C14.94 12.7499 13.1195 14.5708 10.874 14.5708C8.6282 14.5708 6.80786 12.7499 6.80786 10.5041C6.80786 8.25808 8.6282 6.4375 10.874 6.4375V6.4375Z" fill="white"/>
</svg>
