<svg width="134" height="32" viewBox="0 0 134 32" fill="none" xmlns="http://www.w3.org/2000/svg">
<path d="M19.6579 0H20.3779C20.5068 3.78222 17.409 7.66222 13.4668 7.59556C13.4001 3.96445 16.1201 0.697778 19.6579 0ZM107.751 1.94222C109.4 0.844445 111.809 2.52 111.458 4.44889C111.396 5.82222 110.076 6.56 108.885 6.84889C108.245 6.56889 107.511 6.40445 107.045 5.84445C105.938 4.73778 106.325 2.59556 107.751 1.94222ZM31.3557 2.13333C33.1023 2.13778 34.849 2.14222 36.6001 2.12C39.889 9.97333 43.0534 17.88 46.2757 25.76C49.5868 17.92 52.6934 9.99556 55.9601 2.13778C57.7112 2.13333 59.4579 2.13333 61.2046 2.14222C61.2268 11.9289 61.209 21.72 61.2134 31.5067C59.8357 31.5022 58.4579 31.4978 57.0757 31.5378C56.9912 24.3822 57.1423 17.2267 57.0001 10.0711C56.6934 10.6267 56.409 11.1911 56.1557 11.7733C53.4712 18.3556 50.7379 24.92 48.0401 31.4978C46.8579 31.5111 45.6712 31.5156 44.489 31.4444C41.6623 24.2267 38.5601 17.1156 35.6979 9.91556C35.5157 17.0978 35.6623 24.2889 35.6223 31.4756C34.1957 31.5111 32.7734 31.5067 31.3468 31.5111C31.3468 21.7156 31.3334 11.9244 31.3557 2.13333Z" fill="white"/>
<path d="M7.25333 7.71634C9.56445 7.30745 11.5911 8.70301 13.7867 9.08079C15.8622 8.64079 17.7911 7.43634 19.9778 7.62301C22.4133 7.56968 24.6711 8.82745 26.2089 10.6541C23.8711 12.1697 22.1778 14.8586 22.6844 17.7208C22.8489 20.3608 24.8711 22.3386 27.0667 23.543C25.8844 26.5208 24.2622 29.583 21.5556 31.4363C18.8356 33.1608 16.1156 30.0408 13.2844 30.7563C11.8756 31.0275 10.5644 31.6408 9.17778 32.0008H8.05778C7.13778 31.6408 6.25778 31.1386 5.56445 30.423C2.47111 27.2008 0.497778 22.9341 0 18.4986V16.1163C0.244444 12.143 3.17333 8.25412 7.25333 7.71634ZM89.5022 11.303C92.6622 9.34745 96.9067 9.26301 100.191 10.9786C102.227 12.0541 103.458 14.2363 103.587 16.5075C102.236 16.5163 100.889 16.5163 99.5422 16.5075C99.1822 15.7075 98.9645 14.783 98.28 14.1786C97.0667 13.0941 95.3022 12.9652 93.7733 13.2586C92.48 13.5475 91.04 14.5563 91.2 16.0452C91.0711 17.2141 92.1156 17.9963 93.0889 18.3519C95.5156 19.2275 98.1511 19.3919 100.538 20.3919C101.84 20.9297 103.116 21.7963 103.64 23.1608C104.742 25.5608 103.782 28.5741 101.702 30.1163C100.271 31.2052 98.5111 31.7563 96.7556 32.0008H93.5378C91.5111 31.6319 89.4133 30.9208 88.0089 29.3386C86.9289 28.2452 86.5422 26.7252 86.24 25.2719C87.6889 25.2586 89.1378 25.2897 90.5867 25.4097C91.08 26.6897 91.8578 28.0586 93.3067 28.3919C95.1778 28.7919 97.5245 28.8897 98.9911 27.4452C100.067 26.3963 99.8045 24.4275 98.4311 23.7652C95.2 22.2497 91.0978 22.6408 88.3778 20.0408C85.8222 17.6363 86.6089 13.0897 89.5022 11.303ZM118.413 11.2497C121.569 9.36079 125.707 9.26301 128.969 10.943C131.427 12.2141 133.031 14.8008 133.329 17.5252C131.947 17.5475 130.569 17.5563 129.187 17.5697C128.698 16.4808 128.32 15.2408 127.311 14.503C125.898 13.3919 123.924 13.2763 122.24 13.7252C120.107 14.4097 118.889 16.5919 118.52 18.6852C118.196 21.263 118.24 24.143 119.88 26.303C121.542 28.5875 125.084 28.9519 127.311 27.3163C128.311 26.6008 128.702 25.383 129.182 24.3075C130.564 24.3163 131.947 24.3119 133.329 24.3297C133.058 28.5519 129.218 31.6941 125.151 32.0008H122.822C120.444 31.6986 118.067 30.7208 116.476 28.8763C114.471 26.5741 113.738 23.4275 113.884 20.4319C113.827 16.9075 115.342 13.1608 118.413 11.2497ZM65.1822 10.1341C66.6445 10.1341 68.1067 10.1341 69.5689 10.1252C69.7022 14.9075 69.4222 19.703 69.7111 24.4763C69.8933 28.1741 74.8578 29.2675 77.3911 27.1741C78.7467 26.1075 79.3556 24.3386 79.3111 22.6541C79.3289 18.4808 79.2845 14.303 79.3289 10.1297C80.8 10.1341 82.2711 10.1341 83.7422 10.1297C83.7511 17.303 83.7689 24.4719 83.7422 31.6408C82.3067 31.6497 80.8756 31.6097 79.4489 31.463C79.4489 30.303 79.4445 29.143 79.4489 27.983C78.3422 30.223 76.1556 31.8186 73.6311 32.0008H71.7289C69.7956 31.7252 67.8445 30.8719 66.6889 29.2452C65.4667 27.6275 65.1511 25.5386 65.1733 23.5608C65.1822 19.0852 65.1733 14.6097 65.1822 10.1341ZM106.76 10.1297C108.16 10.1386 109.56 10.143 110.956 10.0986C111.076 10.7252 111.178 11.3563 111.191 11.9963C111.164 18.4941 111.196 24.9875 111.173 31.4852C109.698 31.5119 108.222 31.5075 106.747 31.5075C106.751 24.383 106.724 17.2586 106.76 10.1297Z" fill="white"/>
</svg>
