<svg width="161" height="48" viewBox="0 0 161 48" fill="none" xmlns="http://www.w3.org/2000/svg">
<g clip-path="url(#clip0_38_590)">
<path d="M24.0096 0C10.7498 0 0 10.7451 0 23.9996C0 37.2555 10.7498 48 24.0096 48C37.2701 48 48.0193 37.2555 48.0193 23.9996C48.0193 10.7459 37.2707 0.00114548 24.0093 0.00114548L24.0096 0ZM35.0203 34.6143C34.5891 35.3213 33.6676 35.5428 32.9626 35.1121C27.3245 31.6675 20.228 30.8894 11.8705 32.7978C11.0651 32.9824 10.2623 32.4777 10.0789 31.673C9.89451 30.868 10.3971 30.0655 11.2045 29.8821C20.3504 27.792 28.1955 28.6916 34.524 32.5571C35.2293 32.9899 35.4529 33.9098 35.02 34.6148L35.0203 34.6143ZM37.959 28.0803C37.416 28.961 36.264 29.2373 35.3841 28.6965C28.9318 24.7318 19.0929 23.5834 11.4594 25.8997C10.4693 26.1986 9.42374 25.6409 9.12327 24.653C8.8251 23.6634 9.38332 22.6202 10.3716 22.3193C19.0912 19.6747 29.931 20.9557 37.3423 25.5082C38.2225 26.0498 38.5006 27.2019 37.9587 28.0806L37.959 28.0803ZM38.2113 21.2755C30.472 16.6812 17.7061 16.2588 10.318 18.5002C9.13158 18.8599 7.87695 18.1904 7.51742 17.0045C7.15789 15.818 7.82706 14.5647 9.01431 14.2042C17.4954 11.6307 31.5942 12.1279 40.5033 17.4146C41.5704 18.0477 41.9205 19.4253 41.288 20.4905C40.6572 21.5572 39.2753 21.9089 38.2116 21.2755H38.2113ZM65.3223 22.1559C61.1768 21.1678 60.4388 20.4742 60.4388 19.0169C60.4388 17.6401 61.7356 16.7136 63.664 16.7136C65.5333 16.7136 67.3868 17.4172 69.3301 18.8656C69.3889 18.9095 69.4626 18.9269 69.5351 18.9155C69.6077 18.9046 69.6719 18.8647 69.7143 18.8048L71.7385 15.9527C71.8216 15.8352 71.799 15.6733 71.6869 15.5836C69.374 13.7285 66.7696 12.8266 63.7253 12.8266C59.2493 12.8266 56.1228 15.5116 56.1228 19.3534C56.1228 23.4731 58.8198 24.9318 63.4805 26.0578C67.4474 26.9712 68.1168 27.7364 68.1168 29.1043C68.1168 30.6201 66.763 31.5624 64.5843 31.5624C62.1645 31.5624 60.1908 30.7476 57.9829 28.8363C57.9282 28.789 57.853 28.7676 57.7837 28.7716C57.7105 28.7776 57.6437 28.8114 57.5973 28.8673L55.3277 31.5672C55.2325 31.6793 55.2446 31.8467 55.3547 31.9435C57.9236 34.236 61.0831 35.4468 64.4926 35.4468C69.3158 35.4468 72.4326 32.8125 72.4326 28.7352C72.4412 25.2932 70.3798 23.3874 65.3309 22.1597L65.3223 22.1559ZM83.3446 18.0692C81.254 18.0692 79.5392 18.8922 78.1251 20.5788V18.6804C78.1251 18.5306 78.0036 18.4085 77.8539 18.4085H74.1419C73.992 18.4085 73.8707 18.5306 73.8707 18.6804V39.774C73.8707 39.9239 73.992 40.046 74.1419 40.046H77.8539C78.0036 40.046 78.1251 39.9239 78.1251 39.774V33.1157C79.5395 34.7022 81.2546 35.4775 83.3446 35.4775C87.2292 35.4775 91.1617 32.4883 91.1617 26.7743C91.1674 21.0589 87.2338 18.0689 83.3489 18.0689L83.3446 18.0692ZM86.8453 26.7743C86.8453 29.6841 85.0523 31.7146 82.4848 31.7146C79.9466 31.7146 78.032 29.5918 78.032 26.7743C78.032 23.9572 79.9466 21.8341 82.4848 21.8341C85.0107 21.8338 86.8456 23.911 86.8456 26.774L86.8453 26.7743ZM101.241 18.0692C96.2381 18.0692 92.3188 21.9198 92.3188 26.8365C92.3188 31.6996 96.2112 35.5098 101.179 35.5098C106.2 35.5098 110.131 31.6721 110.131 26.7743C110.131 21.8934 106.226 18.0697 101.241 18.0697L101.241 18.0692ZM101.241 31.7435C98.5799 31.7435 96.5738 29.6064 96.5738 26.7729C96.5738 23.9273 98.5106 21.8624 101.179 21.8624C103.858 21.8624 105.877 23.9995 105.877 26.8351C105.877 29.68 103.928 31.7435 101.241 31.7435H101.241ZM120.814 18.4085H116.73V14.234C116.73 14.0844 116.609 13.9623 116.459 13.9623H112.747C112.597 13.9623 112.475 14.0844 112.475 14.234V18.4085H110.69C110.541 18.4085 110.42 18.5306 110.42 18.6805V21.8693C110.42 22.0189 110.541 22.1413 110.69 22.1413H112.475V30.3925C112.475 33.727 114.135 35.4176 117.41 35.4176C118.741 35.4176 119.846 35.1427 120.887 34.5526C120.972 34.5054 121.024 34.4142 121.024 34.3174V31.2807C121.024 31.1869 120.975 31.0984 120.895 31.0494C120.814 30.9987 120.714 30.9961 120.631 31.0371C119.916 31.3967 119.224 31.5627 118.452 31.5627C117.261 31.5627 116.73 31.0222 116.73 29.8107V22.1428H120.814C120.964 22.1428 121.085 22.0207 121.085 21.8708V18.6822C121.091 18.5323 120.97 18.4102 120.818 18.4102L120.814 18.4085ZM135.046 18.4248V17.9121C135.046 16.4038 135.625 15.7312 136.923 15.7312C137.696 15.7312 138.318 15.8848 139.014 16.1169C139.1 16.1439 139.189 16.1304 139.259 16.0791C139.331 16.0278 139.371 15.9455 139.371 15.8584V12.7317C139.371 12.6122 139.294 12.5065 139.179 12.4712C138.444 12.2525 137.503 12.0281 136.094 12.0281C132.665 12.0281 130.853 13.958 130.853 17.6072V18.3924H129.07C128.92 18.3924 128.797 18.5145 128.797 18.6641V21.8693C128.797 22.0189 128.92 22.1413 129.07 22.1413H130.853V34.8684C130.853 35.0183 130.974 35.1404 131.124 35.1404H134.836C134.986 35.1404 135.108 35.0183 135.108 34.8684V22.1422H138.573L143.882 34.8662C143.28 36.2031 142.687 36.4691 141.878 36.4691C141.224 36.4691 140.535 36.2739 139.831 35.8887C139.765 35.8523 139.686 35.8463 139.615 35.8684C139.544 35.8933 139.485 35.946 139.455 36.0148L138.196 38.7738C138.137 38.9042 138.188 39.0573 138.313 39.1249C139.627 39.8359 140.812 40.1394 142.278 40.1394C145.019 40.1394 146.534 38.8632 147.869 35.4299L154.309 18.7962C154.341 18.7125 154.331 18.618 154.28 18.5438C154.229 18.4701 154.147 18.4257 154.057 18.4257H150.193C150.077 18.4257 149.973 18.4993 149.935 18.6079L145.977 29.9105L141.641 18.6005C141.601 18.4953 141.5 18.4257 141.388 18.4257H135.046L135.046 18.4248ZM126.795 18.4085H123.083C122.933 18.4085 122.811 18.5306 122.811 18.6805V34.8685C122.811 35.0183 122.933 35.1404 123.083 35.1404H126.795C126.945 35.1404 127.067 35.0183 127.067 34.8685V18.6816C127.067 18.6458 127.06 18.6104 127.046 18.5774C127.033 18.5443 127.013 18.5143 126.987 18.489C126.962 18.4637 126.932 18.4437 126.899 18.4301C126.866 18.4165 126.83 18.4095 126.795 18.4096L126.795 18.4085ZM124.96 11.0377C123.49 11.0377 122.296 12.2276 122.296 13.6975C122.296 15.1683 123.49 16.3597 124.96 16.3597C126.43 16.3597 127.622 15.1683 127.622 13.6975C127.622 12.2279 126.429 11.0377 124.962 11.0377H124.96ZM157.478 23.6132C156.009 23.6132 154.866 22.4339 154.866 21.0018C154.866 19.5697 156.024 18.377 157.492 18.377C158.961 18.377 160.104 19.556 160.104 20.9869C160.104 22.419 158.946 23.6132 157.478 23.6132H157.478ZM157.493 18.6366C156.155 18.6366 155.142 19.6999 155.142 21.0018C155.142 22.3032 156.147 23.3522 157.479 23.3522C158.817 23.3522 159.83 22.2898 159.83 20.9869C159.83 19.6855 158.824 18.6366 157.494 18.6366H157.493ZM158.072 21.2555L158.811 22.2895H158.188L157.522 21.3409H156.951V22.2895H156.429V19.5485H157.652C158.289 19.5485 158.708 19.8744 158.708 20.4229C158.711 20.8723 158.45 21.1469 158.074 21.2555L158.072 21.2555ZM157.63 20.0188H156.95V20.8858H157.63C157.97 20.8858 158.172 20.7198 158.172 20.4519C158.172 20.1699 157.969 20.0189 157.631 20.0189L157.63 20.0188Z" fill="#2EBD59"/>
</g>
<defs>
<clipPath id="clip0_38_590">
<rect width="160.104" height="48" fill="white"/>
</clipPath>
</defs>
</svg>
