<svg width="21" height="21" viewBox="0 0 21 21" fill="none" xmlns="http://www.w3.org/2000/svg">
<path d="M20.0738 0.5H1.67378C1.23128 0.5 0.873779 0.8575 0.873779 1.3V19.7C0.873779 20.1425 1.23128 20.5 1.67378 20.5H20.0738C20.5163 20.5 20.8738 20.1425 20.8738 19.7V1.3C20.8738 0.8575 20.5163 0.5 20.0738 0.5ZM6.80628 17.5425H3.83878V7.9975H6.80628V17.5425ZM5.32378 6.6925C4.9836 6.6925 4.65105 6.59162 4.3682 6.40263C4.08535 6.21363 3.86489 5.945 3.73471 5.63072C3.60452 5.31643 3.57046 4.97059 3.63683 4.63694C3.7032 4.3033 3.86701 3.99682 4.10756 3.75628C4.3481 3.51573 4.65458 3.35192 4.98822 3.28555C5.32187 3.21918 5.66771 3.25324 5.98199 3.38343C6.29628 3.51361 6.56491 3.73407 6.75391 4.01692C6.9429 4.29977 7.04378 4.63232 7.04378 4.9725C7.04128 5.9225 6.27128 6.6925 5.32378 6.6925ZM17.9163 17.5425H14.9513V12.9C14.9513 11.7925 14.9313 10.37 13.4088 10.37C11.8663 10.37 11.6288 11.575 11.6288 12.82V17.5425H8.66628V7.9975H11.5113V9.3025H11.5513C11.9463 8.5525 12.9138 7.76 14.3588 7.76C17.3638 7.76 17.9163 9.7375 17.9163 12.3075V17.5425Z" fill="white"/>
</svg>
