<svg width="81" height="25" viewBox="0 0 81 25" fill="none" xmlns="http://www.w3.org/2000/svg">
<g clip-path="url(#clip0_14_1313)">
<path d="M12.4788 0.5C5.84882 0.5 0.473938 5.87254 0.473938 12.4998C0.473938 19.1277 5.84882 24.5 12.4788 24.5C19.109 24.5 24.4836 19.1277 24.4836 12.4998C24.4836 5.87297 19.1093 0.500573 12.4786 0.500573L12.4788 0.5ZM17.9841 17.8071C17.7685 18.1606 17.3077 18.2714 16.9552 18.056C14.1362 16.3338 10.5879 15.9447 6.40918 16.8989C6.0065 16.9912 5.60511 16.7389 5.51337 16.3365C5.42119 15.934 5.67249 15.5328 6.07617 15.4411C10.6491 14.396 14.5717 14.8458 17.7359 16.7786C18.0886 16.9949 18.2004 17.4549 17.9839 17.8074L17.9841 17.8071ZM19.4535 14.5402C19.1819 14.9805 18.606 15.1186 18.166 14.8482C14.9398 12.8659 10.0204 12.2917 6.20362 13.4498C5.70861 13.5993 5.18581 13.3204 5.03557 12.8265C4.88649 12.3317 5.1656 11.8101 5.65973 11.6596C10.0195 10.3373 15.4394 10.9778 19.1451 13.2541C19.5852 13.5249 19.7242 14.101 19.4533 14.5403L19.4535 14.5402ZM19.5796 11.1378C15.7099 8.84061 9.32698 8.62939 5.63291 9.7501C5.03973 9.92993 4.41241 9.59519 4.23265 9.00224C4.05288 8.409 4.38747 7.78237 4.98109 7.60211C9.22162 6.31533 16.271 6.56394 20.7256 9.2073C21.2591 9.52383 21.4342 10.2126 21.1179 10.7453C20.8025 11.2786 20.1116 11.4544 19.5797 11.1378H19.5796ZM33.1351 11.578C31.0623 11.0839 30.6933 10.7371 30.6933 10.0085C30.6933 9.32007 31.3417 8.8568 32.3059 8.8568C33.2406 8.8568 34.1674 9.20859 35.139 9.9328C35.1684 9.95473 35.2052 9.96346 35.2415 9.95774C35.2778 9.95229 35.3099 9.93237 35.3311 9.90242L36.3432 8.47635C36.3848 8.4176 36.3734 8.33664 36.3174 8.29179C35.1609 7.36424 33.8587 6.91329 32.3366 6.91329C30.0986 6.91329 28.5353 8.25582 28.5353 10.1767C28.5353 12.2365 29.8838 12.9659 32.2142 13.5289C34.1976 13.9856 34.5324 14.3682 34.5324 15.0521C34.5324 15.81 33.8554 16.2812 32.7661 16.2812C31.5562 16.2812 30.5694 15.8738 29.4654 14.9182C29.438 14.8945 29.4004 14.8838 29.3658 14.8858C29.3292 14.8888 29.2958 14.9057 29.2726 14.9336L28.1378 16.2836C28.0902 16.3396 28.0962 16.4233 28.1513 16.4718C29.4357 17.618 31.0155 18.2234 32.7202 18.2234C35.1319 18.2234 36.6903 16.9062 36.6903 14.8676C36.6945 13.1466 35.6639 12.1937 33.1394 11.5798L33.1351 11.578ZM42.1463 9.53458C41.1009 9.53458 40.2435 9.94612 39.5365 10.7894V9.84022C39.5365 9.76528 39.4757 9.70424 39.4009 9.70424H37.5449C37.4699 9.70424 37.4093 9.76528 37.4093 9.84022V20.387C37.4093 20.4619 37.4699 20.523 37.5449 20.523H39.4009C39.4757 20.523 39.5365 20.462 39.5365 20.387V17.0578C40.2437 17.8511 41.1012 18.2387 42.1463 18.2387C44.0885 18.2387 46.0548 16.7442 46.0548 13.8872C46.0577 11.0294 44.0908 9.53444 42.1484 9.53444L42.1463 9.53458ZM43.8966 13.8872C43.8966 15.342 43.0001 16.3573 41.7163 16.3573C40.4472 16.3573 39.4899 15.2959 39.4899 13.8872C39.4899 12.4786 40.4472 11.4171 41.7163 11.4171C42.9793 11.4169 43.8967 12.4555 43.8967 13.887L43.8966 13.8872ZM51.0944 9.53458C48.593 9.53458 46.6334 11.4599 46.6334 13.9183C46.6334 16.3498 48.5795 18.2549 51.0637 18.2549C53.5739 18.2549 55.5396 16.3361 55.5396 13.8872C55.5396 11.4467 53.5871 9.53487 51.0942 9.53487L51.0944 9.53458ZM51.0944 16.3717C49.7639 16.3717 48.7609 15.3032 48.7609 13.8864C48.7609 12.4637 49.7292 11.4312 51.0637 11.4312C52.4027 11.4312 53.4125 12.4998 53.4125 13.9175C53.4125 15.34 52.4377 16.3717 51.0945 16.3717H51.0944ZM60.8811 9.70425H58.8387V7.61702C58.8387 7.54222 58.7782 7.48117 58.7033 7.48117H56.8475C56.7724 7.48117 56.7115 7.54222 56.7115 7.61702V9.70425H55.8191C55.7445 9.70425 55.6839 9.76528 55.6839 9.84023V11.4347C55.6839 11.5095 55.7445 11.5707 55.8191 11.5707H56.7115V15.6963C56.7115 17.3635 57.5417 18.2088 59.1789 18.2088C59.8446 18.2088 60.397 18.0714 60.9175 17.7763C60.9598 17.7527 60.986 17.7071 60.986 17.6587V16.1403C60.986 16.0935 60.9616 16.0492 60.9215 16.0247C60.8811 15.9993 60.8308 15.998 60.7893 16.0185C60.4318 16.1984 60.0862 16.2813 59.6998 16.2813C59.1044 16.2813 58.8387 16.0111 58.8387 15.4054V11.5714H60.8811C60.956 11.5714 61.0164 11.5103 61.0164 11.4354V9.8411C61.0193 9.76616 60.9591 9.70512 60.8831 9.70512L60.8811 9.70425ZM67.9971 9.71241V9.45605C67.9971 8.70189 68.2864 8.36558 68.9352 8.36558C69.3222 8.36558 69.6329 8.44239 69.981 8.55846C70.0239 8.57193 70.0686 8.5652 70.1034 8.53954C70.1393 8.51389 70.1595 8.47276 70.1595 8.4292V6.86586C70.1595 6.8061 70.1211 6.75323 70.0634 6.7356C69.6957 6.62626 69.2252 6.51406 68.5208 6.51406C66.8066 6.51406 65.9004 7.47901 65.9004 9.30358V9.69621H65.0088C64.934 9.69621 64.8726 9.75725 64.8726 9.83205V11.4347C64.8726 11.5095 64.934 11.5706 65.0088 11.5706H65.9004V17.9342C65.9004 18.0092 65.9609 18.0702 66.0358 18.0702H67.8918C67.9668 18.0702 68.0278 18.0092 68.0278 17.9342V11.5711H69.7607L72.4151 17.9331C72.1138 18.6016 71.8175 18.7345 71.413 18.7345C71.086 18.7345 70.7416 18.6369 70.3895 18.4444C70.3564 18.4262 70.3172 18.4231 70.2815 18.4342C70.2461 18.4466 70.2162 18.473 70.2012 18.5074L69.5722 19.8869C69.5422 19.9521 69.5679 20.0286 69.6306 20.0624C70.2873 20.418 70.8801 20.5697 71.6128 20.5697C72.9832 20.5697 73.7407 19.9316 74.4085 18.2149L77.6283 9.89812C77.6445 9.85627 77.6396 9.80899 77.614 9.77188C77.5885 9.73505 77.5473 9.71284 77.5023 9.71284H75.5702C75.5123 9.71284 75.4605 9.74966 75.4416 9.80397L73.4623 15.4552L71.2944 9.80025C71.2746 9.74766 71.2239 9.71283 71.1677 9.71283H67.9967L67.9971 9.71241ZM63.8714 9.70425H62.0154C61.9405 9.70425 61.8794 9.76528 61.8794 9.84023V17.9342C61.8794 18.0092 61.9405 18.0702 62.0154 18.0702H63.8714C63.9463 18.0702 64.0075 18.0092 64.0075 17.9342V9.8408C64.0075 9.82292 64.004 9.8052 63.9972 9.78868C63.9903 9.77215 63.9803 9.75714 63.9676 9.7445C63.955 9.73186 63.94 9.72185 63.9234 9.71504C63.9069 9.70823 63.8892 9.70475 63.8713 9.70482L63.8714 9.70425ZM62.954 6.01885C62.2187 6.01885 61.6221 6.6138 61.6221 7.34877C61.6221 8.08416 62.2189 8.67984 62.954 8.67984C63.6889 8.67984 64.285 8.08416 64.285 7.34877C64.285 6.61395 63.6887 6.01885 62.9547 6.01885H62.954ZM79.2131 12.3066C78.4785 12.3066 77.907 11.717 77.907 11.0009C77.907 10.2849 78.486 9.68848 79.22 9.68848C79.9545 9.68848 80.5261 10.278 80.5261 10.9935C80.5261 11.7095 79.9469 12.3066 79.213 12.3066H79.2131ZM79.2202 9.8183C78.5512 9.8183 78.045 10.3499 78.045 11.0009C78.045 11.6516 78.5476 12.1761 79.2135 12.1761C79.8824 12.1761 80.3892 11.6449 80.3892 10.9935C80.3892 10.3428 79.886 9.8183 79.2208 9.8183H79.2202ZM79.5098 11.1277L79.8793 11.6447H79.5678L79.2352 11.1704H78.9492V11.6447H78.6884V10.2743H79.2998C79.6184 10.2743 79.8278 10.4372 79.8278 10.7115C79.8292 10.9362 79.6988 11.0734 79.511 11.1277L79.5098 11.1277ZM79.2891 10.5094H78.949V10.9429H79.2891C79.4588 10.9429 79.5601 10.8599 79.5601 10.7259C79.5601 10.5849 79.4584 10.5094 79.2892 10.5094L79.2891 10.5094Z" fill="#2EBD59"/>
</g>
<defs>
<clipPath id="clip0_14_1313">
<rect width="80.0521" height="24" fill="white" transform="translate(0.473938 0.5)"/>
</clipPath>
</defs>
</svg>
