<svg width="85" height="17" viewBox="0 0 85 17" fill="none" xmlns="http://www.w3.org/2000/svg">
<path d="M20.249 11.1192C20.249 14.4749 22.3159 16.4833 25.3871 16.4833C26.9184 16.4833 28.2071 16.0565 28.9268 14.9351V16.4833H31.7302V0.5H28.818V7.29498C28.1569 6.17364 26.9352 5.67155 25.4038 5.67155C22.408 5.66318 20.249 7.71339 20.249 11.1192ZM28.9101 11.1192C28.9101 13.0356 27.6046 14.2322 26.0398 14.2322C24.4164 14.2322 23.1695 13.0356 23.1695 11.1192C23.1695 9.16946 24.4247 7.9477 26.0398 7.9477C27.6046 7.9477 28.9101 9.18619 28.9101 11.1192ZM40.7929 12.3577C40.4582 13.5962 39.613 14.2155 38.2825 14.2155C36.7343 14.2155 35.4624 13.2782 35.4289 11.6213H42.7678C42.8599 11.2113 42.9017 10.7761 42.9017 10.2992C42.9017 7.32845 40.8766 5.65481 37.8892 5.65481C34.7009 5.65481 32.5084 7.92259 32.5084 11.0021C32.5084 14.4331 34.9268 16.4916 38.2741 16.4916C40.8013 16.4916 42.5168 15.4372 43.2699 13.3368L40.7929 12.3577ZM35.4289 9.67992C35.7051 8.48326 36.7009 7.78033 37.8975 7.78033C39.203 7.78033 40.09 8.48326 40.09 9.58787L40.0733 9.67992H35.4289ZM51.5963 12.3577C51.2615 13.5962 50.4164 14.2155 49.0858 14.2155C47.5377 14.2155 46.2657 13.2782 46.2323 11.6213H53.5712C53.6632 11.2113 53.7051 10.7761 53.7051 10.2992C53.7051 7.32845 51.68 5.65481 48.6925 5.65481C45.5042 5.65481 43.3118 7.92259 43.3118 11.0021C43.3118 14.4331 45.7302 16.4916 49.0774 16.4916C51.6046 16.4916 53.3201 15.4372 54.0733 13.3368L51.5963 12.3577ZM46.2323 9.67992C46.5084 8.48326 47.5042 7.78033 48.7009 7.78033C50.0063 7.78033 50.8933 8.48326 50.8933 9.58787L50.8766 9.67992H46.2323ZM63.9812 16.5V13.864H57.864L63.8138 8.07322V5.66318H54.3996V8.17364H60.1486L54.2155 13.9895V16.5H63.9812ZM72.4917 12.3577C72.1569 13.5962 71.3118 14.2155 69.9812 14.2155C68.4331 14.2155 67.1611 13.2782 67.1276 11.6213H74.4666C74.5586 11.2113 74.6005 10.7761 74.6005 10.2992C74.6005 7.32845 72.5753 5.65481 69.5879 5.65481C66.3996 5.65481 64.2072 7.92259 64.2072 11.0021C64.2072 14.4331 66.6256 16.4916 69.9728 16.4916C72.5 16.4916 74.2155 15.4372 74.9687 13.3368L72.4917 12.3577ZM67.1276 9.67992C67.4038 8.48326 68.3996 7.78033 69.5963 7.78033C70.9017 7.78033 71.7887 8.48326 71.7887 9.58787L71.772 9.67992H67.1276Z" fill="white"/>
<path fill-rule="evenodd" clip-rule="evenodd" d="M13.6715 5.66309H17.2615V7.7635H13.6715V5.66309Z" fill="#40AB5D"/>
<path fill-rule="evenodd" clip-rule="evenodd" d="M13.6715 8.5752H17.2615V10.6756H13.6715V8.5752Z" fill="url(#paint0_linear_14_1317)"/>
<path fill-rule="evenodd" clip-rule="evenodd" d="M13.6715 11.4873H17.2615V13.5877H13.6715V11.4873Z" fill="url(#paint1_linear_14_1317)"/>
<path fill-rule="evenodd" clip-rule="evenodd" d="M0.658997 14.3994H4.24895V16.4998H0.658997V14.3994Z" fill="url(#paint2_linear_14_1317)"/>
<path fill-rule="evenodd" clip-rule="evenodd" d="M4.99377 14.3994H8.58373V16.4998H4.99377V14.3994Z" fill="url(#paint3_linear_14_1317)"/>
<path fill-rule="evenodd" clip-rule="evenodd" d="M9.33691 14.3994H12.9269V16.4998H9.33691V14.3994Z" fill="url(#paint4_linear_14_1317)"/>
<path fill-rule="evenodd" clip-rule="evenodd" d="M13.6715 14.3994H17.2615V16.4998H13.6715V14.3994Z" fill="url(#paint5_linear_14_1317)"/>
<path fill-rule="evenodd" clip-rule="evenodd" d="M9.33691 11.4873H12.9269V13.5877H9.33691V11.4873Z" fill="url(#paint6_linear_14_1317)"/>
<path fill-rule="evenodd" clip-rule="evenodd" d="M4.99377 11.4873H8.58373V13.5877H4.99377V11.4873Z" fill="url(#paint7_linear_14_1317)"/>
<path fill-rule="evenodd" clip-rule="evenodd" d="M4.99377 8.5752H8.58373V10.6756H4.99377V8.5752Z" fill="url(#paint8_linear_14_1317)"/>
<path d="M81.5041 9.40354V9.71316H84.3409V8.88471C84.3409 7.02697 83.1778 5.67969 81.228 5.67969C79.9727 5.67969 79.0857 6.29057 78.6255 7.30312V5.67969H75.6966V16.4998H78.6255V9.52906C78.6255 8.42446 79.2196 7.81358 80.1317 7.81358C80.9686 7.82195 81.5041 8.60856 81.5041 9.40354Z" fill="white"/>
<defs>
<linearGradient id="paint0_linear_14_1317" x1="15.4841" y1="10.6937" x2="15.4502" y2="8.54431" gradientUnits="userSpaceOnUse">
<stop stop-color="#358C7B"/>
<stop offset="0.526" stop-color="#33A65E"/>
</linearGradient>
<linearGradient id="paint1_linear_14_1317" x1="13.6187" y1="13.4799" x2="17.3159" y2="11.5961" gradientUnits="userSpaceOnUse">
<stop stop-color="#222B90"/>
<stop offset="1" stop-color="#367B99"/>
</linearGradient>
<linearGradient id="paint2_linear_14_1317" x1="0.659604" y1="15.4504" x2="4.24656" y2="15.4504" gradientUnits="userSpaceOnUse">
<stop stop-color="#FF9900"/>
<stop offset="1" stop-color="#FF8000"/>
</linearGradient>
<linearGradient id="paint3_linear_14_1317" x1="4.99772" y1="15.4504" x2="8.58468" y2="15.4504" gradientUnits="userSpaceOnUse">
<stop stop-color="#FF8000"/>
<stop offset="1" stop-color="#CC1953"/>
</linearGradient>
<linearGradient id="paint4_linear_14_1317" x1="9.33584" y1="15.4504" x2="12.9228" y2="15.4504" gradientUnits="userSpaceOnUse">
<stop stop-color="#CC1953"/>
<stop offset="1" stop-color="#241284"/>
</linearGradient>
<linearGradient id="paint5_linear_14_1317" x1="13.6695" y1="15.4504" x2="17.2564" y2="15.4504" gradientUnits="userSpaceOnUse">
<stop stop-color="#222B90"/>
<stop offset="1" stop-color="#3559A6"/>
</linearGradient>
<linearGradient id="paint6_linear_14_1317" x1="9.19435" y1="13.1039" x2="13.0644" y2="11.9721" gradientUnits="userSpaceOnUse">
<stop stop-color="#CC1953"/>
<stop offset="1" stop-color="#241284"/>
</linearGradient>
<linearGradient id="paint7_linear_14_1317" x1="4.87003" y1="11.8388" x2="8.71237" y2="13.2372" gradientUnits="userSpaceOnUse">
<stop offset="0.003" stop-color="#FFCC00"/>
<stop offset="1" stop-color="#CE1938"/>
</linearGradient>
<linearGradient id="paint8_linear_14_1317" x1="5.29924" y1="8.24877" x2="8.28316" y2="11.0023" gradientUnits="userSpaceOnUse">
<stop offset="0.003" stop-color="#FFD100"/>
<stop offset="1" stop-color="#FD5A22"/>
</linearGradient>
</defs>
</svg>
