<svg width="67" height="17" viewBox="0 0 67 17" fill="none" xmlns="http://www.w3.org/2000/svg">
<path d="M9.99667 0.5H10.3567C10.4211 2.39111 8.87222 4.33111 6.90111 4.29778C6.86778 2.48222 8.22778 0.848889 9.99667 0.5ZM54.0433 1.47111C54.8678 0.922222 56.0722 1.76 55.8967 2.72444C55.8656 3.41111 55.2056 3.78 54.61 3.92444C54.29 3.78444 53.9233 3.70222 53.69 3.42222C53.1367 2.86889 53.33 1.79778 54.0433 1.47111ZM15.8456 1.56667C16.7189 1.56889 17.5922 1.57111 18.4678 1.56C20.1122 5.48667 21.6944 9.44 23.3056 13.38C24.9611 9.46 26.5144 5.49778 28.1478 1.56889C29.0233 1.56667 29.8967 1.56667 30.77 1.57111C30.7811 6.46445 30.7722 11.36 30.7744 16.2533C30.0856 16.2511 29.3967 16.2489 28.7056 16.2689C28.6633 12.6911 28.7389 9.11333 28.6678 5.53556C28.5144 5.81333 28.3722 6.09556 28.2456 6.38667C26.9033 9.67778 25.5367 12.96 24.1878 16.2489C23.5967 16.2556 23.0033 16.2578 22.4122 16.2222C20.9989 12.6133 19.4478 9.05778 18.0167 5.45778C17.9256 9.04889 17.9989 12.6444 17.9789 16.2378C17.2656 16.2556 16.5544 16.2533 15.8411 16.2556C15.8411 11.3578 15.8344 6.46222 15.8456 1.56667Z" fill="white"/>
<path d="M3.79445 4.35768C4.95001 4.15324 5.96334 4.85102 7.06112 5.03991C8.0989 4.81991 9.06334 4.21768 10.1567 4.31102C11.3745 4.28435 12.5033 4.91324 13.2722 5.82657C12.1033 6.58435 11.2567 7.92879 11.51 9.35991C11.5922 10.6799 12.6033 11.6688 13.7011 12.271C13.11 13.7599 12.2989 15.291 10.9456 16.2177C9.58556 17.0799 8.22556 15.5199 6.81001 15.8777C6.10556 16.0132 5.45001 16.3199 4.75668 16.4999H4.19667C3.73667 16.3199 3.29667 16.0688 2.95001 15.711C1.40334 14.0999 0.416675 11.9666 0.167786 9.7488V8.55768C0.290008 6.57102 1.75445 4.62657 3.79445 4.35768ZM44.9189 6.15102C46.4989 5.17324 48.6211 5.13102 50.2633 5.98879C51.2811 6.52657 51.8967 7.61768 51.9611 8.75324C51.2856 8.75768 50.6122 8.75768 49.9389 8.75324C49.7589 8.35324 49.65 7.89102 49.3078 7.58879C48.7011 7.04657 47.8189 6.98213 47.0545 7.12879C46.4078 7.27324 45.6878 7.77768 45.7678 8.52213C45.7033 9.10657 46.2256 9.49768 46.7122 9.67546C47.9256 10.1132 49.2434 10.1955 50.4367 10.6955C51.0878 10.9644 51.7256 11.3977 51.9878 12.0799C52.5389 13.2799 52.0589 14.7866 51.0189 15.5577C50.3033 16.1021 49.4233 16.3777 48.5456 16.4999H46.9367C45.9233 16.3155 44.8745 15.9599 44.1722 15.1688C43.6322 14.6221 43.4389 13.8621 43.2878 13.1355C44.0122 13.1288 44.7367 13.1444 45.4611 13.2044C45.7078 13.8444 46.0967 14.5288 46.8211 14.6955C47.7567 14.8955 48.93 14.9444 49.6633 14.2221C50.2011 13.6977 50.07 12.7132 49.3833 12.3821C47.7678 11.6244 45.7167 11.8199 44.3567 10.5199C43.0789 9.31768 43.4722 7.04435 44.9189 6.15102ZM59.3745 6.12435C60.9522 5.17991 63.0211 5.13102 64.6522 5.97102C65.8811 6.60657 66.6833 7.89991 66.8322 9.26213C66.1411 9.27324 65.4522 9.27768 64.7611 9.28435C64.5167 8.73991 64.3278 8.11991 63.8234 7.75102C63.1167 7.19546 62.13 7.13768 61.2878 7.36213C60.2211 7.70435 59.6122 8.79546 59.4278 9.84213C59.2656 11.131 59.2878 12.571 60.1078 13.651C60.9389 14.7932 62.71 14.9755 63.8234 14.1577C64.3234 13.7999 64.5189 13.191 64.7589 12.6532C65.45 12.6577 66.1411 12.6555 66.8322 12.6644C66.6967 14.7755 64.7767 16.3466 62.7434 16.4999H61.5789C60.39 16.3488 59.2011 15.8599 58.4056 14.9377C57.4034 13.7866 57.0367 12.2132 57.11 10.7155C57.0811 8.95324 57.8389 7.07991 59.3745 6.12435ZM32.7589 5.56657C33.49 5.56657 34.2211 5.56657 34.9522 5.56213C35.0189 7.95324 34.8789 10.351 35.0233 12.7377C35.1145 14.5866 37.5967 15.1332 38.8633 14.0866C39.5411 13.5532 39.8456 12.6688 39.8233 11.8266C39.8322 9.73991 39.81 7.65102 39.8322 5.56435C40.5678 5.56657 41.3033 5.56657 42.0389 5.56435C42.0433 9.15102 42.0522 12.7355 42.0389 16.3199C41.3211 16.3244 40.6056 16.3044 39.8922 16.231C39.8922 15.651 39.89 15.071 39.8922 14.491C39.3389 15.611 38.2456 16.4088 36.9833 16.4999H36.0322C35.0656 16.3621 34.09 15.9355 33.5122 15.1221C32.9011 14.3132 32.7433 13.2688 32.7545 12.2799C32.7589 10.0421 32.7545 7.80435 32.7589 5.56657ZM53.5478 5.56435C54.2478 5.56879 54.9478 5.57102 55.6456 5.54879C55.7056 5.86213 55.7567 6.17768 55.7633 6.49768C55.75 9.74657 55.7656 12.9932 55.7545 16.2421C55.0167 16.2555 54.2789 16.2532 53.5411 16.2532C53.5433 12.691 53.53 9.1288 53.5478 5.56435Z" fill="white"/>
</svg>
