<svg width="32" height="32" viewBox="0 0 32 32" fill="none" xmlns="http://www.w3.org/2000/svg">
<path d="M30.0801 8.4006C28.22 4.95414 25.1604 2.30963 21.4809 0.968041C17.8015 -0.373546 13.7577 -0.319019 10.1158 1.12129C6.47386 2.5616 3.48667 5.28765 1.72013 8.78301C-0.0464075 12.2784 -0.46959 16.3003 0.530751 20.0868C1.53109 23.8732 3.88548 27.1613 7.14788 29.3281C10.4103 31.4949 14.3541 32.3899 18.2322 31.8435C22.1103 31.2971 25.6533 29.3473 28.1901 26.3635C30.7268 23.3797 32.081 19.5691 31.9963 15.6536L28.2271 15.7352C28.2919 18.7281 27.2568 21.6408 25.3178 23.9216C23.3787 26.2023 20.6705 27.6927 17.7062 28.1103C14.7419 28.528 11.7274 27.8439 9.23367 26.1876C6.73998 24.5314 4.94036 22.0181 4.17572 19.1238C3.41109 16.2295 3.73456 13.1553 5.08485 10.4835C6.43514 7.81176 8.71847 5.72804 11.5023 4.62711C14.2861 3.52617 17.377 3.48449 20.1895 4.50997C23.0019 5.53544 25.3406 7.55684 26.7625 10.1912L30.0801 8.4006Z" fill="#933BF0"/>
<path d="M11.5828 16.4908C11.5828 14.1055 13.5165 12.1718 15.9019 12.1718H20.2209V16.4908C20.2209 18.8761 18.2872 20.8098 15.9019 20.8098C13.5165 20.8098 11.5828 18.8761 11.5828 16.4908Z" fill="#933BF0"/>
<path d="M19.043 12.1718H32V15.9018H19.043V12.1718Z" fill="#933BF0"/>
</svg>
